<?xml version="1.0" ?><svg viewBox="0 0 298.16 337.83" xmlns="http://www.w3.org/2000/svg" xmlns:xlink="http://www.w3.org/1999/xlink"><defs><style>.cls-1{fill:none;}.cls-2{fill:#696;}.cls-3{fill:#e5b45c;}.cls-4{clip-path:url(#clip-path);}.cls-5{fill:#fc6;}</style><clipPath id="clip-path"><rect class="cls-1" height="213.04" rx="67.75" ry="67.75" width="151.67" x="73.25" y="86.96"/></clipPath></defs><title/><g data-name="Layer 2" id="Layer_2"><g id="ICON_6"><path class="cls-2" d="M176.58,120.67a60.35,60.35,0,0,1,48.34-59.14,60.33,60.33,0,1,0,0,118.27A60.35,60.35,0,0,1,176.58,120.67Z"/><path class="cls-2" d="M171,88.73a60.35,60.35,0,0,1,48.34-59.14,60.33,60.33,0,1,0,0,118.27A60.35,60.35,0,0,1,171,88.73Z"/><path class="cls-2" d="M161.26,60.33A60.35,60.35,0,0,1,209.6,1.2a60.33,60.33,0,1,0,0,118.27A60.35,60.35,0,0,1,161.26,60.33Z"/><path class="cls-2" d="M123.5,120.67A60.35,60.35,0,0,0,75.16,61.53a60.33,60.33,0,1,1,0,118.27A60.35,60.35,0,0,0,123.5,120.67Z"/><path class="cls-2" d="M129.05,88.73A60.35,60.35,0,0,0,80.72,29.59a60.33,60.33,0,1,1,0,118.27A60.35,60.35,0,0,0,129.05,88.73Z"/><path class="cls-2" d="M138.81,60.33A60.35,60.35,0,0,0,90.48,1.2a60.33,60.33,0,1,1,0,118.27A60.35,60.35,0,0,0,138.81,60.33Z"/><rect class="cls-3" height="213.04" rx="67.75" ry="67.75" width="151.67" x="73.25" y="86.96"/><g class="cls-4"><polygon class="cls-5" points="165.88 337.83 0 181.45 7.15 174.71 173.03 331.09 165.88 337.83"/><polygon class="cls-5" points="190.91 314.24 25.03 157.86 32.18 151.12 198.06 307.5 190.91 314.24"/><polygon class="cls-5" points="215.93 290.65 50.05 134.27 57.2 127.53 223.08 283.91 215.93 290.65"/><polygon class="cls-5" points="240.96 267.06 75.08 110.68 82.23 103.94 248.11 260.32 240.96 267.06"/><polygon class="cls-5" points="265.98 243.47 100.1 87.09 107.25 80.35 273.13 236.72 265.98 243.47"/><polygon class="cls-5" points="291.01 219.87 125.13 63.49 132.28 56.76 298.16 213.13 291.01 219.87"/><polygon class="cls-5" points="7.15 219.87 0 213.13 165.88 56.76 173.03 63.49 7.15 219.87"/><polygon class="cls-5" points="32.18 243.47 25.03 236.72 190.91 80.35 198.06 87.09 32.18 243.47"/><polygon class="cls-5" points="57.2 267.06 50.05 260.32 215.93 103.94 223.08 110.68 57.2 267.06"/><polygon class="cls-5" points="82.23 290.65 75.08 283.91 240.96 127.53 248.11 134.27 82.23 290.65"/><polygon class="cls-5" points="107.25 314.24 100.1 307.5 265.98 151.12 273.13 157.86 107.25 314.24"/><polygon class="cls-5" points="132.28 337.83 125.13 331.09 291.01 174.71 298.16 181.45 132.28 337.83"/></g></g></g></svg>